<?xml version="1.0" encoding="UTF-8"?>
<svg width="48" height="48" version="1.1" xmlns="http://www.w3.org/2000/svg" id="link">
  <rect id="borderInside" x="1.44" y="1.37" width="45.1" height="45.3" rx="2.97" ry="2.99" fill="#e2f7fb" stroke="#1a92c2" stroke-width=".4881"/>
 <rect id="borderOutside" x=".5" y=".5" width="47" height="47" rx="4" ry="4" fill="none" fill-opacity=".12" stroke="#3db6e5"/>
 <path transform="rotate(45)" d="m41.5-17.6v13.1c0 6.32-3.5 11.4-7.9 11.4-4.3 0-7.8-5.08-7.8-11.4v-13.1" fill="none" stroke="#20718e" stroke-width=".938"/>
 <path transform="rotate(45)" d="m41.5-17.6v13.1c0 6.32-3.5 11.4-7.9 11.4-4.3 0-7.8-5.08-7.8-11.4v-15" fill="none" stroke="#20718e" stroke-width=".938"/>
 <path transform="rotate(45)" d="m36.1-18v13.88c0 2.89-1 5.22-2.4 5.22-1.3 0-2.3-2.33-2.3-5.22v-15.28" fill="none" stroke="#20718e" stroke-width=".94826"/>
 <path transform="rotate(45)" d="m38.6-17.7v13.31c0 4.648-2.2 8.39-5 8.39s-5-3.742-5-8.39l-0.1-15.11" fill="none" stroke="#3db6e5" stroke-width="4.851"/>
 <path transform="rotate(45)" d="m21.5 14.7v-10.13c0-6.32 5.1-11.4 11.4-11.4h2c6.3 0 11.4 5.08 11.4 11.4v13.13" fill="none" stroke="#20718e" stroke-width=".938"/>
 <path transform="rotate(45)" d="m24.4 14.7-0.1-10.24c-0.1-4.648 3.7-8.39 8.4-8.39h2.3c4.7 0 8.4 3.742 8.4 8.39v13.34" fill="none" stroke="#3db6e5" stroke-width="4.851"/>
 <path d="m8.89 29.5 7.31-7.4c2-2 5.3-2 7.3 0l2.2 2.2c2.1 2.1 2.1 5.3 0 7.4l-9.8 9.8" fill="none" stroke="#20718e" stroke-width=".94826"/>
 <path transform="rotate(45)" d="m38.6-17.7v13.31c0 4.648-2.2 8.39-5 8.39" fill="none" stroke="#3db6e5" stroke-width="4.851"/>
 <path transform="rotate(45)" d="m36.1-18v13.88c0 2.89-1 5.22-2.4 5.22" fill="none" stroke="#20718e" stroke-width=".94826"/>
 <path transform="rotate(45)" d="m41.5-17.6v13.1c0 6.32-3.5 11.4-7.9 11.4" fill="none" stroke="#20718e" stroke-width=".938"/>
</svg>
