<?xml version="1.0" encoding="UTF-8"?>
<svg width="48" height="48" version="1.1" xmlns="http://www.w3.org/2000/svg" id="settings">
 <rect id="borderInside" x="1.44" y="1.37" width="45.1" height="45.3" rx="2.97" ry="2.99" fill="#e2f7fb" stroke="#1a92c2" stroke-width=".488"/>
 <rect id="borderOutside" x=".5" y=".5" width="47" height="47" rx="4" ry="4" fill="none" fill-opacity=".12" stroke="#3db6e5"/>
 <path id="wallLine" d="m13.4 41.5h-7.33" fill="none" stroke="#000000" stroke-opacity=".289" stroke-width="1.2"/>
 <path id="doorBackground" transform="scale(1,-1)" d="m41.4-41.5a28 28 0 0 1-10.9 22.2 28 28 0 0 1-24.28 4.9l7.18-27.1z" fill="#ecfafe"/>
 <path id="doorLines" d="m6.27 14.4 7.13 27.1h28.1" fill="#ecfafe" stroke="#000000" stroke-linecap="round" stroke-width="1.2"/>
 <path id="doorArc" d="m41.5 41.5c0-8.7-4-16.9-10.9-22.2s-15.9-7.1-24.33-4.9" fill="#ecfafe" stroke="#000000" stroke-dasharray="1.2, 2.39999999999999991" stroke-dashoffset=".24" stroke-linecap="round" stroke-opacity=".482" stroke-width="1.2"/>
 <path id="hammer" d="m31.4 11.3-2.7 20.4 5.4-19.8 0.7 0.1 0.2-0.8c1.7 0.3 2.8 1.2 3.9 2.9 0.3-3-1.4-4.6-3.6-5.26l-3.8-1.01-0.2 0.53-2.5-1.18-1 3.42 3-0.1-0.2 0.6z" fill="#ecfafe" stroke="#000000" stroke-width="1px"/>
 <path id="screwdriver" d="m16.7 16.3 2.4 11.3 0.1 2.6 0.6 2 1-0.2 0.3-2.2-1-2.3-1.8-11.5 1.5-0.3-0.1-0.8c-0.7-0.4-1.1-1.2-0.3-2.1l-1.2-5.96c-1.3-1.18-3.5-0.8-4.2 0.76l1 6c0.7 0.6 0.7 1.4 0.4 2.1l0.1 0.8z" fill="#ecfafe" stroke="#000000" stroke-width="1px"/>
</svg>
