<?xml version="1.0" encoding="UTF-8"?>
<svg version="1.1" viewBox="0 0 48 48" xmlns="http://www.w3.org/2000/svg" id="notouch">
	<rect class="borderInside" x="1.44" y="1.37" width="45.1" height="45.3" rx="2.97" ry="2.99" fill="#e2f7fb" stroke="#1a92c2" stroke-width=".4881"/>
	<rect class="borderOutside" x=".5" y=".5" width="47" height="47" rx="4" ry="4" fill="none" fill-opacity=".12" stroke="#3db6e5"/>
	<rect id="doorFrame" x="11.8" y="6.27" width="17.1" height="24.9" fill="#ecfafe" stroke="#20718e" stroke-width=".666"/>
	<path id="doorFront" d="m12.3 6.95h16v23.8l-16-0.1z" fill="#3db6e5" stroke-width=".29"/>
	<ellipse id="doorknob" cx="14.2" cy="20.7" rx=".93" ry=".98" fill="#e8ffff" stroke="#20718e" stroke-width=".447"/>
	<path id="hand" d="m38.4 26.8c-0.5-1.1-1.1-2.3-2-1.9-1 0.2-1.4 1.3-1 2.3 0.9 4-0.3 0-0.6-1.2-0.4-1.3-1.3-2-2.3-1.7-0.9 0.3-1.5 1.5-1.1 2.7 1.3 5.2-0.2 0-0.5-1.1-0.3-1.3-1.5-1.9-2.4-1.6-1.1 0.3-1.5 1.5-1.2 2.6 2.7 9.3-2.1-6.4-2.6-7.7-0.4-1.4-1.2-2.4-2.2-2.1-1 0.2-1.2 1.5-0.8 3 0.5 1.2 3.6 12.7 3.6 12.7-0.5-1.2-1.6-3.3-2.6-3.1-0.9 0.2-0.8 1-0.4 2.6 0.3 1.5 0.1 2.5 0.5 3.4 0.4 1.2 1.1 3.9 2.4 5.4 0.8 0.3 4 4.4 4.4 4.7h11.6c0.5-3.9 0.4-7.5 0.2-8.6 0-1-1.3-4.5-1.6-5.7z" fill="#ffffff" stroke="#000000" stroke-dashoffset=".24" stroke-linecap="round" stroke-width=".508"/>
	<path id="prohibit" d="m34.9 36.7c-5.8 6-15.8 6-21.5 0-6.2-5.9-6.2-15.6 0-21.7l21.5 21.7c6.2-5.9 6.2-15.6 0-21.7-5.8-5.92-15.8-5.92-21.5 0" fill="none" stroke="#ff0000" stroke-linecap="round" stroke-linejoin="bevel" stroke-width="3.25"/>
</svg>
