<svg id="link" version="1.1" viewBox="0 0 48 48" xmlns="http://www.w3.org/2000/svg">
 <defs>
  <filter id="filter1663" x="-2e-5" y="-2e-5" width="1" height="1" color-interpolation-filters="sRGB">
   <feGaussianBlur stdDeviation="0.000145"/>
  </filter>
 </defs>
 <rect id="borderInside" x="1.44" y="1.37" width="45.1" height="45.3" rx="2.97" ry="2.99" fill="#e2f7fb" stroke="#1a92c2" stroke-width=".488"/>
 <rect id="borderOutside" x=".5" y=".5" width="47" height="47" rx="4" ry="4" fill="none" fill-opacity=".12" stroke="#3db6e5"/>
 <g fill="#3db6e5" opacity=".995">
  <g stroke="#20718e" stroke-width="1px">
   <path d="m43.8 16.4-13 8 1.6 11.2c-1.6 1.7-7.2-1.6-12.8-7.2-5.5-5.5-8.9-11.1-7.2-12.7 1.5-1.4 10.9 1.3 10.9 1.3l8-12.4" fill="#3db6e5"/>
   <path d="m43.8 16.4c-0.9 0.8-4.6-0.9-7.9-4.2-3.3-3.31-5.4-6.76-4.6-7.59s4.2 1.26 7.6 4.58c3.3 3.31 5.7 6.41 4.9 7.21z" fill="#3db6e5"/>
   <path d="m30.8 24.4c-0.6 0.8-3.6-0.7-5-2.2-1.6-1.6-3.3-4.5-2.5-5.2" fill="#3db6e5"/>
   <path d="m17.5 26.3-13.2 17.4 17.4-13.5" fill="none" filter="url(#filter1663)"/>
  </g>
 </g>
</svg>
